<mxfile host="app.diagrams.net" agent="Mozilla/5.0 (X11; Ubuntu; Linux x86_64; rv:131.0) Gecko/20100101 Firefox/131.0" version="24.7.17">
  <diagram name="Page-1" id="OShblOBXLURz6e1jgf_Z">
    <mxGraphModel dx="1304" dy="688" grid="1" gridSize="10" guides="1" tooltips="1" connect="1" arrows="1" fold="1" page="1" pageScale="1" pageWidth="1200" pageHeight="1600" math="0" shadow="0">
      <root>
        <mxCell id="0" />
        <mxCell id="1" parent="0" />
        <mxCell id="hDoWKRbV0gJWEAgA5Dey-28" style="edgeStyle=orthogonalEdgeStyle;rounded=0;orthogonalLoop=1;jettySize=auto;html=1;exitX=0.75;exitY=1;exitDx=0;exitDy=0;entryX=0.75;entryY=0;entryDx=0;entryDy=0;labelBackgroundColor=none;strokeColor=#A8201A;fontColor=default;" edge="1" parent="1" source="hDoWKRbV0gJWEAgA5Dey-1" target="hDoWKRbV0gJWEAgA5Dey-15">
          <mxGeometry relative="1" as="geometry" />
        </mxCell>
        <mxCell id="hDoWKRbV0gJWEAgA5Dey-57" style="edgeStyle=orthogonalEdgeStyle;rounded=0;orthogonalLoop=1;jettySize=auto;html=1;entryX=0.5;entryY=0;entryDx=0;entryDy=0;strokeColor=#A8201A;fontColor=#143642;fillColor=#FAE5C7;" edge="1" parent="1" source="hDoWKRbV0gJWEAgA5Dey-1" target="hDoWKRbV0gJWEAgA5Dey-41">
          <mxGeometry relative="1" as="geometry" />
        </mxCell>
        <mxCell id="hDoWKRbV0gJWEAgA5Dey-1" value="API GATEWAY" style="rounded=1;whiteSpace=wrap;html=1;labelBackgroundColor=none;fillColor=#FAE5C7;strokeColor=#0F8B8D;fontColor=#143642;" vertex="1" parent="1">
          <mxGeometry x="460" y="50" width="310" height="60" as="geometry" />
        </mxCell>
        <mxCell id="hDoWKRbV0gJWEAgA5Dey-15" value="&lt;div&gt;&lt;br&gt;&lt;/div&gt;&lt;div&gt;&lt;br&gt;&lt;/div&gt;&lt;div&gt;&lt;br&gt;&lt;/div&gt;&lt;div&gt;&lt;br&gt;&lt;/div&gt;" style="rounded=1;whiteSpace=wrap;html=1;labelBackgroundColor=none;fillColor=#FAE5C7;strokeColor=#0F8B8D;fontColor=#143642;" vertex="1" parent="1">
          <mxGeometry x="50" y="390" width="1130" height="200" as="geometry" />
        </mxCell>
        <mxCell id="hDoWKRbV0gJWEAgA5Dey-16" value="&lt;div&gt;DB operation &lt;br&gt;&lt;/div&gt;&lt;div&gt;queue&lt;br&gt;&lt;/div&gt;" style="whiteSpace=wrap;html=1;aspect=fixed;labelBackgroundColor=none;fillColor=#FAE5C7;strokeColor=#0F8B8D;fontColor=#143642;" vertex="1" parent="1">
          <mxGeometry x="180" y="390" width="200" height="200" as="geometry" />
        </mxCell>
        <mxCell id="hDoWKRbV0gJWEAgA5Dey-17" value="&lt;div&gt;External api operations&lt;/div&gt;&lt;div&gt;queue&lt;br&gt;&lt;/div&gt;" style="whiteSpace=wrap;html=1;aspect=fixed;labelBackgroundColor=none;fillColor=#FAE5C7;strokeColor=#0F8B8D;fontColor=#143642;" vertex="1" parent="1">
          <mxGeometry x="800" y="390" width="200" height="200" as="geometry" />
        </mxCell>
        <mxCell id="hDoWKRbV0gJWEAgA5Dey-46" style="edgeStyle=orthogonalEdgeStyle;rounded=0;orthogonalLoop=1;jettySize=auto;html=1;exitX=1;exitY=0.5;exitDx=0;exitDy=0;labelBackgroundColor=none;strokeColor=#A8201A;fontColor=default;" edge="1" parent="1" source="hDoWKRbV0gJWEAgA5Dey-19">
          <mxGeometry relative="1" as="geometry">
            <mxPoint x="609.45" y="590" as="targetPoint" />
            <mxPoint x="419.45" y="829.9999999999998" as="sourcePoint" />
          </mxGeometry>
        </mxCell>
        <mxCell id="hDoWKRbV0gJWEAgA5Dey-53" style="edgeStyle=orthogonalEdgeStyle;rounded=0;orthogonalLoop=1;jettySize=auto;html=1;entryX=0.394;entryY=0.996;entryDx=0;entryDy=0;strokeColor=#A8201A;fontColor=#143642;fillColor=#FAE5C7;entryPerimeter=0;" edge="1" parent="1" source="hDoWKRbV0gJWEAgA5Dey-19" target="hDoWKRbV0gJWEAgA5Dey-16">
          <mxGeometry relative="1" as="geometry" />
        </mxCell>
        <mxCell id="hDoWKRbV0gJWEAgA5Dey-19" value="DB writer" style="rounded=0;whiteSpace=wrap;html=1;labelBackgroundColor=none;fillColor=#FAE5C7;strokeColor=#0F8B8D;fontColor=#143642;" vertex="1" parent="1">
          <mxGeometry x="200" y="1090" width="120" height="60" as="geometry" />
        </mxCell>
        <mxCell id="hDoWKRbV0gJWEAgA5Dey-20" value="external api microservice" style="rounded=0;whiteSpace=wrap;html=1;labelBackgroundColor=none;fillColor=#FAE5C7;strokeColor=#0F8B8D;fontColor=#143642;" vertex="1" parent="1">
          <mxGeometry x="850" y="990" width="120" height="60" as="geometry" />
        </mxCell>
        <mxCell id="hDoWKRbV0gJWEAgA5Dey-22" style="edgeStyle=orthogonalEdgeStyle;rounded=0;orthogonalLoop=1;jettySize=auto;html=1;entryX=0.76;entryY=1.001;entryDx=0;entryDy=0;entryPerimeter=0;labelBackgroundColor=none;strokeColor=#A8201A;fontColor=default;" edge="1" parent="1" source="hDoWKRbV0gJWEAgA5Dey-20" target="hDoWKRbV0gJWEAgA5Dey-15">
          <mxGeometry relative="1" as="geometry" />
        </mxCell>
        <mxCell id="hDoWKRbV0gJWEAgA5Dey-23" value="&lt;div&gt;DB&lt;/div&gt;&lt;div&gt;&lt;br&gt;&lt;/div&gt;" style="shape=cylinder3;whiteSpace=wrap;html=1;boundedLbl=1;backgroundOutline=1;size=15;labelBackgroundColor=none;fillColor=#FAE5C7;strokeColor=#0F8B8D;fontColor=#143642;" vertex="1" parent="1">
          <mxGeometry x="360" y="1290" width="60" height="80" as="geometry" />
        </mxCell>
        <mxCell id="hDoWKRbV0gJWEAgA5Dey-26" value="" style="endArrow=classic;startArrow=classic;html=1;rounded=0;exitX=0;exitY=0.5;exitDx=0;exitDy=0;exitPerimeter=0;entryX=0.5;entryY=1;entryDx=0;entryDy=0;labelBackgroundColor=none;strokeColor=#A8201A;fontColor=default;" edge="1" parent="1" source="hDoWKRbV0gJWEAgA5Dey-23" target="hDoWKRbV0gJWEAgA5Dey-19">
          <mxGeometry width="50" height="50" relative="1" as="geometry">
            <mxPoint x="620" y="890" as="sourcePoint" />
            <mxPoint x="670" y="840" as="targetPoint" />
          </mxGeometry>
        </mxCell>
        <mxCell id="hDoWKRbV0gJWEAgA5Dey-27" style="edgeStyle=orthogonalEdgeStyle;rounded=0;orthogonalLoop=1;jettySize=auto;html=1;exitX=0.25;exitY=1;exitDx=0;exitDy=0;entryX=0.5;entryY=0;entryDx=0;entryDy=0;labelBackgroundColor=none;strokeColor=#A8201A;fontColor=default;" edge="1" parent="1" source="hDoWKRbV0gJWEAgA5Dey-1" target="hDoWKRbV0gJWEAgA5Dey-16">
          <mxGeometry relative="1" as="geometry" />
        </mxCell>
        <mxCell id="hDoWKRbV0gJWEAgA5Dey-31" value="Put external api request" style="text;html=1;align=center;verticalAlign=middle;resizable=0;points=[];autosize=1;strokeColor=none;fillColor=none;labelBackgroundColor=none;fontColor=#143642;" vertex="1" parent="1">
          <mxGeometry x="780" y="215" width="150" height="30" as="geometry" />
        </mxCell>
        <mxCell id="hDoWKRbV0gJWEAgA5Dey-32" value="&lt;div&gt;Put DB create/update/delete/get request&lt;/div&gt;&lt;div&gt;&lt;br&gt;&lt;/div&gt;" style="text;html=1;align=center;verticalAlign=middle;resizable=0;points=[];autosize=1;strokeColor=none;fillColor=none;labelBackgroundColor=none;fontColor=#143642;" vertex="1" parent="1">
          <mxGeometry x="210" y="210" width="240" height="40" as="geometry" />
        </mxCell>
        <mxCell id="hDoWKRbV0gJWEAgA5Dey-33" value="&lt;div&gt;read response&lt;/div&gt;&lt;div&gt;by source&lt;/div&gt;&lt;div&gt;&lt;br&gt;&lt;/div&gt;&lt;div&gt;&lt;br&gt;&lt;/div&gt;" style="text;html=1;align=center;verticalAlign=middle;whiteSpace=wrap;rounded=0;labelBackgroundColor=none;fontColor=#143642;" vertex="1" parent="1">
          <mxGeometry x="550" y="330" width="60" height="30" as="geometry" />
        </mxCell>
        <mxCell id="hDoWKRbV0gJWEAgA5Dey-35" style="edgeStyle=orthogonalEdgeStyle;rounded=0;orthogonalLoop=1;jettySize=auto;html=1;labelBackgroundColor=none;strokeColor=#A8201A;fontColor=default;" edge="1" parent="1" source="hDoWKRbV0gJWEAgA5Dey-20">
          <mxGeometry relative="1" as="geometry">
            <mxPoint x="340" y="590" as="targetPoint" />
            <Array as="points">
              <mxPoint x="340" y="1020" />
              <mxPoint x="340" y="592" />
            </Array>
          </mxGeometry>
        </mxCell>
        <mxCell id="hDoWKRbV0gJWEAgA5Dey-36" value="&lt;div&gt;read message&lt;/div&gt;&lt;div&gt;&lt;br&gt;&lt;/div&gt;" style="text;html=1;align=center;verticalAlign=middle;whiteSpace=wrap;rounded=0;labelBackgroundColor=none;fontColor=#143642;" vertex="1" parent="1">
          <mxGeometry x="920" y="660" width="60" height="30" as="geometry" />
        </mxCell>
        <mxCell id="hDoWKRbV0gJWEAgA5Dey-37" value="send DB operation" style="text;html=1;align=center;verticalAlign=middle;whiteSpace=wrap;rounded=0;labelBackgroundColor=none;fontColor=#143642;" vertex="1" parent="1">
          <mxGeometry x="715" y="990" width="60" height="30" as="geometry" />
        </mxCell>
        <mxCell id="hDoWKRbV0gJWEAgA5Dey-40" value="&lt;div&gt;read&amp;nbsp;&lt;/div&gt;&lt;div&gt;message&lt;/div&gt;&lt;div&gt;&lt;br&gt;&lt;/div&gt;" style="text;whiteSpace=wrap;html=1;labelBackgroundColor=none;fontColor=#143642;" vertex="1" parent="1">
          <mxGeometry x="190" y="710" width="60" height="50" as="geometry" />
        </mxCell>
        <mxCell id="hDoWKRbV0gJWEAgA5Dey-41" value="" style="whiteSpace=wrap;html=1;aspect=fixed;labelBackgroundColor=none;fillColor=#FAE5C7;strokeColor=#0F8B8D;fontColor=#143642;" vertex="1" parent="1">
          <mxGeometry x="515" y="390" width="200" height="200" as="geometry" />
        </mxCell>
        <mxCell id="hDoWKRbV0gJWEAgA5Dey-42" value="&lt;div&gt;api gateway responses&lt;/div&gt;&lt;div&gt;&lt;br&gt;&lt;/div&gt;" style="text;html=1;align=center;verticalAlign=middle;whiteSpace=wrap;rounded=0;labelBackgroundColor=none;fontColor=#143642;" vertex="1" parent="1">
          <mxGeometry x="585" y="475" width="60" height="30" as="geometry" />
        </mxCell>
        <mxCell id="hDoWKRbV0gJWEAgA5Dey-43" value="" style="endArrow=none;dashed=1;html=1;dashPattern=1 3;strokeWidth=2;rounded=0;exitX=1;exitY=0.5;exitDx=0;exitDy=0;labelBackgroundColor=none;strokeColor=#A8201A;fontColor=default;" edge="1" parent="1" source="hDoWKRbV0gJWEAgA5Dey-20">
          <mxGeometry width="50" height="50" relative="1" as="geometry">
            <mxPoint x="570" y="870" as="sourcePoint" />
            <mxPoint x="1170" y="970" as="targetPoint" />
            <Array as="points" />
          </mxGeometry>
        </mxCell>
        <mxCell id="hDoWKRbV0gJWEAgA5Dey-58" value="&lt;div&gt;&lt;br&gt;&lt;/div&gt;&lt;div&gt;&lt;br&gt;&lt;/div&gt;" style="edgeLabel;html=1;align=center;verticalAlign=middle;resizable=0;points=[];strokeColor=#0F8B8D;fontColor=#143642;fillColor=#FAE5C7;" vertex="1" connectable="0" parent="hDoWKRbV0gJWEAgA5Dey-43">
          <mxGeometry x="-0.1226" y="3" relative="1" as="geometry">
            <mxPoint y="-1" as="offset" />
          </mxGeometry>
        </mxCell>
        <mxCell id="hDoWKRbV0gJWEAgA5Dey-50" value="&lt;div&gt;send response specifying the destination&lt;/div&gt;&lt;div&gt;&lt;br&gt;&lt;/div&gt;&lt;div&gt;&lt;br&gt;&lt;/div&gt;" style="text;html=1;align=center;verticalAlign=middle;whiteSpace=wrap;rounded=0;fontColor=#143642;" vertex="1" parent="1">
          <mxGeometry x="540" y="830" width="60" height="30" as="geometry" />
        </mxCell>
        <mxCell id="hDoWKRbV0gJWEAgA5Dey-52" value="&lt;div&gt;SEND AND READ response&lt;/div&gt;&lt;div&gt;&lt;br&gt;&lt;/div&gt;" style="text;html=1;align=center;verticalAlign=middle;whiteSpace=wrap;rounded=0;fontColor=#143642;" vertex="1" parent="1">
          <mxGeometry x="740" y="740" width="60" height="30" as="geometry" />
        </mxCell>
        <mxCell id="hDoWKRbV0gJWEAgA5Dey-55" value="" style="endArrow=classic;startArrow=classic;html=1;rounded=0;strokeColor=#A8201A;fontColor=#143642;fillColor=#FAE5C7;exitX=0.5;exitY=1;exitDx=0;exitDy=0;entryX=0;entryY=0;entryDx=0;entryDy=0;" edge="1" parent="1" source="hDoWKRbV0gJWEAgA5Dey-41" target="hDoWKRbV0gJWEAgA5Dey-20">
          <mxGeometry width="50" height="50" relative="1" as="geometry">
            <mxPoint x="650" y="800" as="sourcePoint" />
            <mxPoint x="700" y="750" as="targetPoint" />
          </mxGeometry>
        </mxCell>
      </root>
    </mxGraphModel>
  </diagram>
</mxfile>
